<?xml version="1.0" standalone="no"?><!DOCTYPE svg PUBLIC "-//W3C//DTD SVG 1.1//EN" "http://www.w3.org/Graphics/SVG/1.1/DTD/svg11.dtd"><svg t="1703058158758" class="icon" viewBox="0 0 1024 1024" version="1.1" xmlns="http://www.w3.org/2000/svg" p-id="30167" xmlns:xlink="http://www.w3.org/1999/xlink" width="200" height="200"><path d="M512 210.2l242 92.6v56.5c0 40.9-5.2 81.7-15.4 121.4-10.1 39.2-25.1 77.3-44.7 113.3-19.6 36.1-43.7 70-71.7 100.7-28.5 31.3-60.9 59.4-96.5 83.5l-13.7 9.3-13.8-9.3c-35.6-24.1-68-52.2-96.5-83.5-28-30.8-52.1-64.7-71.7-100.7-19.5-35.9-34.5-74-44.6-113.2C275.2 441 270 400.1 270 359.3v-56.6l242-92.5m0-85.7L190 247.7v111.6c0 192.5 98.1 373.1 263.4 485l58.6 39.6 58.6-39.6C735.8 732.4 834 551.8 834 359.2V247.7L512 124.5z" fill="#31BC69" p-id="30168"></path><path d="M476.2 616.4c-8 0-15.6-3.2-21.2-8.8l-110-110c-11.7-11.7-11.7-30.7 0-42.4s30.7-11.7 42.4 0l88.8 88.8 183.7-183.7c11.7-11.7 30.7-11.7 42.4 0s11.7 30.7 0 42.4L497.4 607.6c-5.6 5.7-13.2 8.8-21.2 8.8z" fill="#31BC69" p-id="30169"></path></svg>