<?xml version="1.0" standalone="no"?><!DOCTYPE svg PUBLIC "-//W3C//DTD SVG 1.1//EN" "http://www.w3.org/Graphics/SVG/1.1/DTD/svg11.dtd"><svg t="1703408819131" class="icon" viewBox="0 0 1024 1024" version="1.1" xmlns="http://www.w3.org/2000/svg" p-id="17696" xmlns:xlink="http://www.w3.org/1999/xlink" width="200" height="200"><path d="M797.5936 911.4624H223.744c-83.4048 0-150.9888-67.584-150.9888-150.9888V406.2208c0-83.4048 67.584-150.9888 150.9888-150.9888h573.9008c83.4048 0 150.9888 67.584 150.9888 150.9888v354.2528c-0.0512 83.4048-67.6352 150.9888-151.04 150.9888z" fill="#A5ADF6" p-id="17697"></path><path d="M634.4704 799.744l-451.9936-216.7296c-63.488-30.464-90.2656-106.5984-59.8528-170.0864l127.1808-265.216c30.464-63.488 106.5984-90.2656 170.0864-59.8528l451.9936 216.7296c63.488 30.464 90.2656 106.5984 59.8528 170.0864l-127.1808 265.216c-30.464 63.488-106.5984 90.2656-170.0864 59.8528z" fill="#A5ADF6" p-id="17698"></path><path d="M871.8848 304.5888l-102.912-49.3568H223.744c-9.0624 0-17.9712 0.8704-26.624 2.4064L122.624 412.928c-30.464 63.488-3.6352 139.6224 59.8528 170.0864l451.9936 216.7296c63.488 30.464 139.6224 3.6352 170.0864-59.8528l127.1808-265.216c30.4128-63.488 3.6352-139.6736-59.8528-170.0864z" fill="#635DF7" p-id="17699"></path><path d="M511.9488 744.96c-17.0496 0-32.8192-9.8816-40.192-25.2416L365.2608 499.2a40.94976 40.94976 0 0 1 19.0976-54.6816 40.94976 40.94976 0 0 1 54.6816 19.0976l72.4992 150.1184 70.5536-149.76c9.6256-20.48 34.048-29.2352 54.528-19.6096s29.2352 34.048 19.6096 54.528l-103.8848 220.5184c-7.2704 15.4624-23.04 25.5488-40.1408 25.6-0.1024-0.0512-0.1536-0.0512-0.256-0.0512z m-33.7408-60.5184z m67.328-0.3584c0 0.0512 0 0 0 0z" fill="#F7F8F8" p-id="17700"></path></svg>