<?xml version="1.0" standalone="no"?><!DOCTYPE svg PUBLIC "-//W3C//DTD SVG 1.1//EN" "http://www.w3.org/Graphics/SVG/1.1/DTD/svg11.dtd"><svg t="1703161203026" class="icon" viewBox="0 0 1024 1024" version="1.1" xmlns="http://www.w3.org/2000/svg" p-id="1877" xmlns:xlink="http://www.w3.org/1999/xlink" width="200" height="200"><path d="M670.64 909.09a1962.1 1962.1 0 0 1-312.53 0 262.4 262.4 0 0 1-240.67-240.66 1962.1 1962.1 0 0 1 0-312.53 262.4 262.4 0 0 1 240.67-240.67 1962.1 1962.1 0 0 1 312.53 0A262.4 262.4 0 0 1 911.3 355.9a1962.1 1962.1 0 0 1 0 312.53 262.4 262.4 0 0 1-240.66 240.66z" fill="#FFDEDE" p-id="1878"></path><path d="M692.28 738.71l-35.49 3c-34.86 2.9-105.7 4.36-140.65 4.37-35.15 0-106.2-1.45-141.27-4.37l-35.49-3c-65.9-5.5-118.23-60.13-123.5-128.92l-3.1-40.52c-2.58-33.69-2.58-88.81 0-122.5l3.1-40.52c5.27-68.79 57.6-123.42 123.5-128.92l35.49-3c35-2.91 105.91-4.37 141-4.37s106 1.46 141 4.37l35.49 3c65.9 5.5 118.23 60.13 123.5 128.92l2.83 37.05c2.8 36.5 3 109 0 129.44l-2.83 37c-5.35 68.84-57.68 123.47-123.58 128.97z" fill="#FF3B3B" p-id="1879"></path><path d="M516.06 482.18a64.27 64.27 0 0 1-40.3-14.27l-33.84-27.38a39.82 39.82 0 0 0-25-8.84h-83.75a27.77 27.77 0 0 1 0-55.54h83.76a95.53 95.53 0 0 1 59.92 21.21l33.84 27.38a8.57 8.57 0 0 0 10.74 0L555 397.57a95.59 95.59 0 0 1 59.89-21.19h83.54a27.78 27.78 0 0 1 0 55.55h-83.51a39.79 39.79 0 0 0-25 8.83l-33.61 27.17a64.26 64.26 0 0 1-40.25 14.25z" fill="#FFDEDE" p-id="1880"></path></svg>