<?xml version="1.0" standalone="no"?><!DOCTYPE svg PUBLIC "-//W3C//DTD SVG 1.1//EN" "http://www.w3.org/Graphics/SVG/1.1/DTD/svg11.dtd"><svg t="1703161161795" class="icon" viewBox="0 0 1024 1024" version="1.1" xmlns="http://www.w3.org/2000/svg" p-id="1581" xmlns:xlink="http://www.w3.org/1999/xlink" width="200" height="200"><path d="M669.64 910.09a1962.1 1962.1 0 0 1-312.53 0 262.4 262.4 0 0 1-240.67-240.66 1962.1 1962.1 0 0 1 0-312.53 262.4 262.4 0 0 1 240.67-240.67 1962.1 1962.1 0 0 1 312.53 0A262.4 262.4 0 0 1 910.3 356.9a1962.1 1962.1 0 0 1 0 312.53 262.4 262.4 0 0 1-240.66 240.66z" fill="#F1DFFF" p-id="1582"></path><path d="M554.59 792.41l171.55-97.8a87.56 87.56 0 0 0 44.45-76V423a87.54 87.54 0 0 0-44.45-76l-171.55-97.8a89.87 89.87 0 0 0-88.89 0L294.14 347a87.54 87.54 0 0 0-44.45 76v195.6a87.56 87.56 0 0 0 44.45 76l171.56 97.8a89.87 89.87 0 0 0 88.89 0.01z" fill="#BE85FF" p-id="1583"></path><path d="M535.2 391.71l23.69 48A22.44 22.44 0 0 0 575.78 452l53 7.7c18.4 2.67 25.74 25.28 12.43 38.26l-38.34 37.37a22.43 22.43 0 0 0-6.45 19.86l9.04 52.81c3.14 18.32-16.09 32.3-32.54 23.65l-47.4-24.92a22.39 22.39 0 0 0-20.87 0l-47.4 24.92c-16.45 8.65-35.69-5.33-32.54-23.65l9.05-52.77a22.46 22.46 0 0 0-6.45-19.86L389 498c-13.31-13-6-35.59 12.43-38.26l53-7.7a22.41 22.41 0 0 0 16.88-12.27l23.7-48a22.43 22.43 0 0 1 40.19-0.06z" fill="#F1DFFF" p-id="1584"></path></svg>