<?xml version="1.0" standalone="no"?><!DOCTYPE svg PUBLIC "-//W3C//DTD SVG 1.1//EN" "http://www.w3.org/Graphics/SVG/1.1/DTD/svg11.dtd"><svg t="1703573236811" class="icon" viewBox="0 0 1024 1024" version="1.1" xmlns="http://www.w3.org/2000/svg" p-id="29942" xmlns:xlink="http://www.w3.org/1999/xlink" width="200" height="200"><path d="M930.048 217.5616v622.7968a83.2 83.2 0 0 1-83.2 83.2H224.0768c-69.5936 0-126.0032-56.4096-126.0032-126.0032V217.5616a125.9264 125.9264 0 0 1 126.0032-126.0032h579.9936c69.5936 0 126.0032 56.4096 126.0032 126.0032z" fill="#0800F5" p-id="29943"></path><path d="M733.1584 923.5584H224.064c-69.5936 0-126.0032-56.4096-126.0032-126.0032V365.568a618.7904 618.7904 0 0 1 54.9248 0.2176c294.3872 14.2208 534.2976 236.224 576.0896 522.624 1.6896 11.6096 3.0464 23.3344 4.096 35.1616z" fill="#FFFFFF" opacity=".2" p-id="29944"></path><path d="M930.048 217.5616v622.7968c0.0256 11.264-2.2528 22.4-6.6816 32.7424a635.1616 635.1616 0 0 1-146.6112 17.0624c-16.0384 0-31.936-0.5888-47.68-1.7792-291.008-21.6576-527.2192-240-576.128-522.5728a638.7968 638.7968 0 0 1 8.2304-257.472 125.4784 125.4784 0 0 1 62.8864-16.768h579.9936c69.5936 0 126.0032 56.3968 126.0032 125.9904z" fill="#FFFFFF" opacity=".14" p-id="29945"></path><path d="M384 384c0 70.6944 57.3056 128 128 128s128-57.3056 128-128-57.3056-128-128-128-128 57.3056-128 128z m168.6272 131.2L512 555.8272l-40.6272-40.6272C349.312 534.6816 256 640.4608 256 768h512c0-127.5392-93.312-233.3184-215.3728-252.8zM512 731.4304l-43.8272-43.8272L512 555.9936l43.8272 131.6608L512 731.4304z" fill="#FFFFFF" p-id="29946"></path><path d="M236.8 377.6a83.2 83.2 0 1 0 166.4 0 83.2 83.2 0 0 0-166.4 0z m109.6064 85.2864L320 489.2928l-26.4064-26.4064C214.2592 475.5456 153.6 544.2944 153.6 627.2h332.8c0-82.9056-60.6592-151.6544-139.9936-164.3136zM320 603.4176l-28.4928-28.4928L320 489.3952l28.4928 85.5808L320 603.4304zM633.6 377.6a83.2 83.2 0 1 0 166.4 0 83.2 83.2 0 0 0-166.4 0z m109.6064 85.2864L716.8 489.2928l-26.4064-26.4064C611.0592 475.5456 550.4 544.2944 550.4 627.2h332.8c0-82.9056-60.6592-151.6544-139.9936-164.3136zM716.8 603.4176l-28.4928-28.4928L716.8 489.3952l28.4928 85.5808L716.8 603.4304z" fill="#FFFFFF" p-id="29947"></path></svg>