<?xml version="1.0" standalone="no"?><!DOCTYPE svg PUBLIC "-//W3C//DTD SVG 1.1//EN" "http://www.w3.org/Graphics/SVG/1.1/DTD/svg11.dtd"><svg t="1703573223117" class="icon" viewBox="0 0 1024 1024" version="1.1" xmlns="http://www.w3.org/2000/svg" p-id="28786" xmlns:xlink="http://www.w3.org/1999/xlink" width="200" height="200"><path d="M493.226667 0h37.404444c24.32 8.248889 47.928889 19.057778 70.542222 31.431111-1.706667 23.04-3.271111 45.937778-4.835555 68.977778-33.137778-15.502222-69.12-50.062222-107.662222-32-67.271111 32.142222-129.422222 73.955556-194.702223 109.937778-10.382222-18.062222-20.764444-35.982222-31.146666-53.902223C339.911111 83.342222 411.022222 30.435556 493.226667 0zM262.257778 899.128889c10.666667-17.92 21.191111-35.697778 31.857778-53.475556 64.995556 35.84 126.862222 77.226667 193.706666 109.368889 32.426667 17.493333 64.568889-8.533333 92.871111-22.328889 8.391111 18.915556 16.924444 37.831111 25.457778 56.888889-24.035556 13.653333-49.066667 25.6-75.235555 34.417778h-36.693334c-83.057778-30.008889-154.453333-83.768889-231.964444-124.871111z" fill="#1A9AD5" p-id="28787"></path><path d="M596.337778 100.408889c1.564444-23.04 3.128889-45.937778 4.835555-68.977778 101.404444 60.444444 205.084444 117.191111 306.488889 177.635556 42.524444 22.755556 67.697778 69.688889 64.853334 117.76 0.426667 123.306667 0.284444 246.755556 0.142222 370.062222 2.702222 47.928889-22.044444 94.862222-64.568889 117.617778-99.84 59.591111-202.097778 115.342222-301.937778 175.075555-8.533333-19.057778-17.066667-37.973333-25.457778-56.888889 90.311111-53.191111 181.333333-105.244444 272.355556-157.44 24.888889-15.217778 57.315556-32.284444 56.32-66.275555 3.697778-112.924444-0.426667-225.991111 1.706667-339.057778-1.564444-35.555556 7.111111-83.484444-31.004445-103.822222-92.871111-58.026667-189.866667-109.226667-283.733333-165.688889z" fill="#07B6DE" p-id="28788"></path><path d="M707.271111 331.52c29.724444-51.2 113.351111-40.248889 132.977778 14.364444 18.631111 44.942222-17.777778 85.333333-37.262222 122.88-47.075556 76.657778-87.324444 157.582222-137.386667 232.248889-40.817778 34.275556-86.897778 62.72-135.537778 84.906667-0.568889-67.697778-11.377778-143.786667 29.724445-202.524444 50.346667-83.2 95.715556-169.528889 147.484444-251.875556m16.782222 12.373333c26.737778 24.177778 57.742222 42.666667 90.737778 56.746667-2.275556-21.902222 2.986667-51.342222-20.195555-64.426667-21.902222-17.635556-48.497778 1.28-70.542223 7.68m-52.337777 106.666667c-32.995556 60.16-71.537778 117.333333-99.982223 179.768889 35.84-8.248889 45.368889-47.217778 63.573334-74.24 34.417778-65.706667 80.497778-125.582222 104.817777-196.124445-33.991111 20.48-48.924444 58.311111-68.408888 90.595556m73.813333-35.982222c47.217778-4.551111-20.053333-44.088889 0 0m-18.062222 13.368889l5.404444 9.955555c4.551111-3.271111 13.511111-9.955556 18.062222-13.368889l-5.404444-9.955555c-4.551111 3.413333-13.511111 10.097778-18.062222 13.368889m59.875555-30.293334c-27.022222 33.28-37.688889 81.066667-76.515555 103.395556 7.111111-20.622222 24.746667-40.533333 22.044444-63.146667l-6.115555 1.28c-12.942222 12.231111-23.608889 26.168889-32.426667 41.671111-0.711111 7.68-2.133333 23.182222-2.986667 31.004445-2.275556-2.844444-6.826667-8.533333-9.244444-11.377778-17.635556 35.555556-36.693333 70.826667-60.871111 102.542222 3.271111 2.275556 9.528889 6.968889 12.657777 9.244445l32.284445 2.844444c-5.688889 7.111111-16.924444 21.333333-22.471111 28.586667l-3.271111 27.875555c39.253333-38.115556 59.875556-89.884444 88.177777-135.68 21.475556-39.68 48.497778-76.657778 65.991112-118.328889-1.848889-4.977778-5.404444-14.933333-7.253334-19.911111m-161.422222 246.044445l7.964444-31.431111c-19.768889-7.68-36.266667 34.417778-7.964444 31.431111m-64.568889-12.657778c-0.853333 11.662222-2.417778 35.128889-3.271111 46.791111 17.208889 10.097778 34.417778 20.195556 51.484444 30.435556 13.511111-8.96 27.022222-18.062222 40.391112-27.022223-29.013333-17.777778-58.453333-34.56-88.604445-50.204444m1.706667 106.951111c6.542222-3.982222 19.768889-12.088889 26.453333-16.071111-0.853333-16.924444-10.097778-24.462222-27.591111-22.897778-16.071111 5.404444-16.924444 35.555556 1.137778 38.968889z" fill="#07B6DE" p-id="28789"></path><path d="M691.342222 511.857778c4.835556-2.702222 14.506667-8.106667 19.484445-10.808889l18.204444-10.24c-20.622222 40.248889-42.951111 80.071111-71.537778 115.484444 10.097778-32 24.888889-62.151111 33.848889-94.435555z" fill="#07B6DE" p-id="28790"></path><path d="M92.586667 226.702222c52.764444-40.248889 113.777778-67.84 170.24-102.257778 10.382222 17.92 20.764444 35.84 31.146666 53.902223-52.195556 31.857778-108.088889 57.742222-157.582222 93.582222-26.737778 18.773333-21.617778 55.182222-23.466667 83.484444 0.568889 104.248889 0.568889 208.497778 0 312.746667 1.848889 28.444444-3.555556 65.137778 23.608889 83.911111 49.635556 35.697778 105.528889 61.724444 157.582223 93.582222-10.666667 17.777778-21.191111 35.555556-31.857778 53.475556-51.342222-30.577778-104.96-57.6-154.88-90.453333C73.955556 787.768889 52.764444 750.222222 52.48 710.968889c-3.128889-109.084444 0.568889-218.168889-1.422222-327.111111 0.142222-53.902222-5.973333-119.608889 41.528889-157.155556z" fill="#2685CE" p-id="28791"></path><path d="M208.782222 361.813333c117.191111-6.826667 235.377778-3.128889 352.853334-2.417777 23.893333-4.551111 28.586667 45.368889-0.711112 37.688888-119.04 1.706667-238.364444 2.986667-357.262222-0.995555-2.275556-6.826667-6.684444-20.337778-8.96-27.022222l14.08-7.253334z" fill="#1B97D4" p-id="28792"></path><path d="M745.528889 414.577778c-20.053333-44.088889 47.217778-4.551111 0 0z" fill="#021B23" p-id="28793"></path><path d="M727.466667 427.946667c4.551111-3.271111 13.511111-9.955556 18.062222-13.368889l5.404444 9.955555c-4.551111 3.413333-13.511111 10.097778-18.062222 13.368889l-5.404444-9.955555z" fill="#010A0E" p-id="28794"></path><path d="M726.755556 439.182222l6.115555-1.28c2.702222 22.613333-14.933333 42.524444-22.044444 63.146667-4.977778 2.702222-14.648889 8.106667-19.484445 10.808889 0.853333-7.822222 2.275556-23.324444 2.986667-31.004445 8.817778-15.502222 19.484444-29.44 32.426667-41.671111z" fill="#01161C" p-id="28795"></path><path d="M211.2 462.08c97.28-4.408889 195.271111-2.417778 292.693333-1.28 31.288889-9.813333 31.146667 47.36 1.848889 38.257778-96.284444 0.426667-192.711111 2.702222-288.711111-1.137778-24.462222 5.12-28.444444-32.426667-5.831111-35.84z" fill="#1D95D4" p-id="28796"></path><path d="M203.804444 571.164444c88.462222-5.546667 177.208889-0.426667 265.671112-2.702222 5.546667 19.484444 6.4 41.955556-20.764445 39.395556-83.484444-3.697778-172.657778 13.084444-252.871111-9.528889 1.991111-6.684444 5.973333-20.337778 7.964444-27.164445z" fill="#1E93D3" p-id="28797"></path><path d="M625.92 643.697778c-28.302222 2.986667-11.804444-39.111111 7.964444-31.431111l-7.964444 31.431111z" fill="#021A22" p-id="28798"></path><path d="M205.937778 685.795556c66.56-3.84 133.546667-3.84 200.106666-0.568889 18.488889 6.542222 21.333333 18.204444 8.391112 35.128889-68.977778 5.831111-138.808889 4.551111-207.928889 0.711111l-9.528889-10.524445c2.275556-6.115556 6.684444-18.488889 8.96-24.746666z" fill="#1F90D2" p-id="28799"></path></svg>