<?xml version="1.0" standalone="no"?><!DOCTYPE svg PUBLIC "-//W3C//DTD SVG 1.1//EN" "http://www.w3.org/Graphics/SVG/1.1/DTD/svg11.dtd"><svg t="1703573264090" class="icon" viewBox="0 0 1024 1024" version="1.1" xmlns="http://www.w3.org/2000/svg" p-id="31062" xmlns:xlink="http://www.w3.org/1999/xlink" width="200" height="200"><path d="M192.83493 703.74V576.81S7.13493 577.47 0.00493 377.65c0 0-2.3-96.78 92.43-158 0 0 84.57-55 188-5.08 0 0 51.46-145.2 232-149.81 0 0 150.55-11.68 233.67 148.76 0 0 181.87-92.69 271.13 115.11 18.41 51.13 11.61 237.69-184.12 246.79V703.6H192.83493z m0 65.24h639.38v136.49s-7.19 48.82-55.68 54H247.85493s-45.85-1-55-57z" fill="#358BEF" p-id="31063"></path></svg>