<?xml version="1.0" standalone="no"?><!DOCTYPE svg PUBLIC "-//W3C//DTD SVG 1.1//EN" "http://www.w3.org/Graphics/SVG/1.1/DTD/svg11.dtd"><svg t="1703573154975" class="icon" viewBox="0 0 1024 1024" version="1.1" xmlns="http://www.w3.org/2000/svg" p-id="24310" xmlns:xlink="http://www.w3.org/1999/xlink" width="200" height="200"><path d="M80.450897 632.409739l108.092562 180.865219-28.53746 6.611818c-28.580117 6.59049-49.140739 22.586824-57.842745 44.896378-6.867759 17.745267-5.289455 37.32478 4.223032 51.145612 10.237654 15.015226 27.30041 23.589261 46.79461 23.589261 34.466768 0 68.251026-27.087126 78.275395-60.743413 4.351003-14.460686 6.31322-36.898211-8.787319-61.46858l-119.567266-198.631814-22.650809 13.735519z m72.729999 349.765179c-33.784258 0-63.686738-15.313824-81.943888-41.974381-17.361355-25.423507-20.731249-60.146216-8.787319-90.816521 10.664223-27.428381 32.205953-49.055425 60.871383-61.980463l-101.267459-169.4545 95.508779-57.970715 141.514236 235.146113c18.171836 29.433255 22.906751 63.601425 13.266293 95.892691-11.773302 39.500281-54.963404 91.157776-119.162025 91.157776M768.890463 1023.765387c11.730645-0.426569 20.944534-10.237654 20.560621-22.09627-2.431443-69.488076 15.313824-82.711712 58.695882-87.53194 64.07065-7.251671 72.943284-46.24007 79.341818-74.734873 6.867759-30.158422 11.38939-50.164504 75.929266-53.577056a21.179146 21.179146 0 0 0 20.091396-22.458853 20.965862 20.965862 0 0 0-22.352211-20.134052c-89.366187 4.649601-105.490492 43.723313-115.216263 86.742788-5.929308 25.978047-8.574035 37.921976-42.528921 41.718439-88.513049 9.939056-98.750703 69.104164-96.617858 131.468539 0.426569 11.517361 9.87507 20.603278 21.328446 20.603278h0.767824z m113.680614-470.612151l34.594739 16.550873-5.033513-38.092603 26.447273-27.85495-37.794006-6.99573-18.214493-33.784258-18.299806 33.784258-37.751348 6.99573 26.447272 27.85495-5.07617 38.092603 34.680052-16.550873z m87.276 89.024932l-87.276-41.71844-87.318656 41.71844 12.754411-95.978006-66.736706-70.127929 95.188852-17.574639 46.112099-85.143154 46.069443 85.143154 95.124867 17.574639-66.630064 70.127929 12.711754 95.978006zM559.381142 42.656891c-12.413155 0-24.442399 2.644727-35.789132 7.891525a86.102935 86.102935 0 0 0-42.145008 113.979213c19.152944 41.675783 71.876862 61.46858 113.936556 42.187665a85.313782 85.313782 0 0 0 44.619108-48.2876 85.505738 85.505738 0 0 0-2.516757-65.73427A86.230905 86.230905 0 0 0 559.381142 42.656891m0.170627 214.628148a128.97311 128.97311 0 0 1-116.837224-74.862844c-29.561226-64.475891-1.322364-140.981025 63.046885-170.648893A127.501448 127.501448 0 0 1 559.381142 0c50.07919 0 95.978005 29.390598 116.837225 74.862844 14.332715 31.182187 15.655079 66.118181 3.796463 98.324134a127.458791 127.458791 0 0 1-66.800692 72.260774 126.946908 126.946908 0 0 1-53.662369 11.837287M244.551957 149.085834c38.881756 62.70563 152.4344 228.854221 152.4344 228.854221l-33.485659 145.012102c-10.109683 37.794006-5.545396 61.980463 2.004874 92.096228l88.555706 366.48668 16.46556-326.111933 185.728104 84.609944s-25.679448 131.489867-34.296141 176.386245c0 0 60.956697-144.393576 75.588011-180.353336 5.886651-14.588657 3.15661-23.333319-12.839724-40.993272-30.030451-33.400346-108.732415-115.429547-108.732416-115.429548l33.741601-147.123617s179.052301-125.325946 233.311866-166.873758c2.730041-2.047531 2.687384-3.625836 2.260816-4.862886l-3.839121-2.815355c-37.879319 14.247402-104.232113 42.998146-154.844514 64.923788l-49.695279 21.499074a77.315615 77.315615 0 0 1-49.481993 3.83912l-141.855492-35.661161a100.798234 100.798234 0 0 1-42.486263-22.437525L244.551957 149.085834z m209.93589 874.16767c-17.105413-0.085314-38.00729-10.578909-45.173648-39.969507-21.243132-86.764117-85.271125-358.104601-85.271126-358.104601-8.403408-33.762929-14.418029-65.691612-1.91956-112.550207l29.092-126.051113c-22.22424-32.547208-108.455146-159.003562-142.452688-210.661057-9.512487-14.503343-10.621566-31.651413-2.943325-45.941472 12.669097-23.503947 46.965237-30.670305 67.035304-12.797067l158.555664 141.04501c6.99573 6.185249 15.484451 10.70688 24.527713 12.967695l141.87682 35.661161c7.379642 1.91956 15.271167 1.279707 22.309554-1.748932l49.567307-21.371103c51.017642-22.09627 117.946304-51.124284 152.434401-64.689175 26.276645-10.408281 55.070046 2.900669 63.601424 28.025577 6.441191 19.174273-0.127971 39.777551-16.806815 52.531962-49.439337 37.794006-188.543459 135.520943-221.282622 158.513007l-24.911625 108.604445c19.451542 20.347337 69.530733 72.943284 93.589219 99.689155 18.982317 20.901877 36.258357 47.47712 20.731249 85.825665-14.631314 36.045073-40.865302 98.046864-60.402157 144.372248l-15.612423 36.940867c-12.114557 28.793402-53.875653 35.703818-72.431401 13.223637-8.318094-10.067026-11.346733-23.759888-8.531378-38.305889 6.611818-34.509425 21.328446-109.969465 27.85495-143.51911l-97.428339-44.405823c-2.858012 66.438108-9.384516 217.742101-11.687989 259.140613-1.407677 25.231551-20.048739 43.574014-44.320509 43.574014M125.176647 255.89869L0 381.203308l125.155319 125.283289 125.197975-125.283289-125.197975-125.304618z m0 60.359501l64.859803 64.945117-64.881131 64.923788-64.838475-64.923788 64.838475-64.923789z" fill="#2E3F59" p-id="24311"></path></svg>