<?xml version="1.0" standalone="no"?><!DOCTYPE svg PUBLIC "-//W3C//DTD SVG 1.1//EN" "http://www.w3.org/Graphics/SVG/1.1/DTD/svg11.dtd"><svg t="1703573131480" class="icon" viewBox="0 0 1024 1024" version="1.1" xmlns="http://www.w3.org/2000/svg" p-id="22756" xmlns:xlink="http://www.w3.org/1999/xlink" width="200" height="200"><path d="M49.5104 475.4432c-5.7344-141.7216 122.7264-381.0816 419.84-381.0816s410.5216 243.6608 410.5216 415.3344c0 123.4944-58.1632 347.2896-339.4048 426.24-55.3472 15.5136-97.8432-48.4352-62.72-93.9008 10.1376-13.1584 19.8656-27.7504 29.0304-44.1344 27.9552-49.8688-24.5248-105.728-76.8-82.5344-64.2048 28.4672-144.4864 43.8784-236.288 16.3328C50.0736 688.5888 49.5104 475.4432 49.5104 475.4432z" fill="#F85F69" p-id="22757"></path><path d="M234.496 479.6928m-70.912 0a70.912 70.912 0 1 0 141.824 0 70.912 70.912 0 1 0-141.824 0Z" fill="#FFFFFF" p-id="22758"></path><path d="M345.2416 318.9248m-58.9824 0a58.9824 58.9824 0 1 0 117.9648 0 58.9824 58.9824 0 1 0-117.9648 0Z" fill="#FFFFFF" p-id="22759"></path><path d="M515.6352 269.9264m-46.7456 0a46.7456 46.7456 0 1 0 93.4912 0 46.7456 46.7456 0 1 0-93.4912 0Z" fill="#FFFFFF" p-id="22760"></path><path d="M515.6352 613.0176c-11.9808 0-23.8592-5.12-32.1536-15.0528a41.84064 41.84064 0 0 1 5.3248-58.9824l416.6144-347.9552c17.7664-14.7968 44.1856-12.4416 58.9824 5.3248a41.84064 41.84064 0 0 1-5.3248 58.9824l-416.6144 347.9552a41.64608 41.64608 0 0 1-26.8288 9.728z" fill="#F85F69" p-id="22761"></path><path d="M848.6912 347.5968c-10.24-26.2656-23.1424-52.1216-38.8608-76.6976l-321.024 268.1344c-17.7664 14.848-20.1216 41.2672-5.3248 58.9824a41.75872 41.75872 0 0 0 32.1536 15.0528c9.472 0 18.9952-3.1744 26.8288-9.728l306.2272-255.744z" fill="#F33B3D" p-id="22762"></path></svg>