<?xml version="1.0" standalone="no"?><!DOCTYPE svg PUBLIC "-//W3C//DTD SVG 1.1//EN" "http://www.w3.org/Graphics/SVG/1.1/DTD/svg11.dtd"><svg t="1703129466149" class="icon" viewBox="0 0 1024 1024" version="1.1" xmlns="http://www.w3.org/2000/svg" p-id="14619" xmlns:xlink="http://www.w3.org/1999/xlink" width="200" height="200"><path d="M672.654222 152.348444l4.152889 3.128889 144.896 125.952c12.003556 10.410667 15.075556 27.022222 7.964445 39.025778l-2.844445 3.811556L386.844444 830.407111a26.737778 26.737778 0 0 1-10.808888 7.509333l-4.380445 1.251556-164.807111 36.408889c-18.602667 3.754667-37.205333-10.581333-39.480889-28.842667l-0.170667-5.632 19.911112-162.360889a27.477333 27.477333 0 0 1 3.982222-12.686222l2.56-3.584 439.978666-506.140444c9.443556-10.865778 26.055111-12.288 39.025778-3.982223z m173.454222 643.584a39.822222 39.822222 0 0 1 5.404445 79.303112l-5.404445 0.341333H568.149333a39.822222 39.822222 0 0 1-5.404444-79.303111l5.404444-0.341334h277.959111zM537.998222 370.460444l-283.534222 326.200889-16.440889 102.968889 106.666667-24.632889 282.737778-325.347555-89.429334-79.189334z m121.400889-139.662222l-76.629333 88.120889 89.372444 79.246222 77.425778-88.974222-90.168889-78.392889z" fill="#ffffff" p-id="14620"></path></svg>