<?xml version="1.0" standalone="no"?><!DOCTYPE svg PUBLIC "-//W3C//DTD SVG 1.1//EN" "http://www.w3.org/Graphics/SVG/1.1/DTD/svg11.dtd"><svg t="1703077166249" class="icon" viewBox="0 0 1024 1024" version="1.1" xmlns="http://www.w3.org/2000/svg" p-id="5826" xmlns:xlink="http://www.w3.org/1999/xlink" width="200" height="200"><path d="M199.111111 796.444444a28.444444 28.444444 0 0 1 28.444445-28.444444h625.777777a28.444444 28.444444 0 0 1 0 56.888889H227.555556a28.444444 28.444444 0 0 1-28.444445-28.444445zM620.828444 199.111111a28.444444 28.444444 0 0 1 20.138667 8.362667l118.727111 118.784a28.444444 28.444444 0 0 1 0 40.163555l-336.213333 336.384a28.444444 28.444444 0 0 1-20.081778 8.305778H284.444444a28.444444 28.444444 0 0 1-28.444444-28.444444V564.337778a28.444444 28.444444 0 0 1 8.305778-20.081778l336.384-336.782222a28.444444 28.444444 0 0 1 20.138666-8.362667z m0 68.664889L312.888889 576.113778V654.222222h78.677333l307.768889-307.882666-78.506667-78.506667z" fill="#297FFF" p-id="5827"></path></svg>