<?xml version="1.0" standalone="no"?><!DOCTYPE svg PUBLIC "-//W3C//DTD SVG 1.1//EN" "http://www.w3.org/Graphics/SVG/1.1/DTD/svg11.dtd"><svg t="1703253840651" class="icon" viewBox="0 0 1024 1024" version="1.1" xmlns="http://www.w3.org/2000/svg" p-id="4015" xmlns:xlink="http://www.w3.org/1999/xlink" width="200" height="200"><path d="M768 800H256a32 32 0 0 1 0-64h512a32 32 0 1 1 0 64z m-105.344-329.824a32 32 0 0 1-0.96 0.96L470.4 662.4a32 32 0 0 1-22.4 9.6h-96a32 32 0 0 1-32-32v-96a32 32 0 0 1 9.28-22.72l288-288a32 32 0 0 1 45.12 0l96 96a32 32 0 0 1 0 45.12l-95.744 95.744z m-118.816-72.864L384 557.12V608h50.88l159.84-159.84-50.88-50.88z m45.12-45.12l50.88 50.88L690.88 352 640 301.12l-51.04 51.04z" fill="#e6e6e6" p-id="4016"></path></svg>