<?xml version="1.0" standalone="no"?><!DOCTYPE svg PUBLIC "-//W3C//DTD SVG 1.1//EN" "http://www.w3.org/Graphics/SVG/1.1/DTD/svg11.dtd"><svg t="1703161214282" class="icon" viewBox="0 0 1024 1024" version="1.1" xmlns="http://www.w3.org/2000/svg" p-id="2024" xmlns:xlink="http://www.w3.org/1999/xlink" width="200" height="200"><path d="M668.64 910.09a1962.1 1962.1 0 0 1-312.53 0 262.4 262.4 0 0 1-240.67-240.66 1962.1 1962.1 0 0 1 0-312.53 262.4 262.4 0 0 1 240.67-240.67 1962.1 1962.1 0 0 1 312.53 0A262.4 262.4 0 0 1 909.3 356.9a1962.1 1962.1 0 0 1 0 312.53 262.4 262.4 0 0 1-240.66 240.66z" fill="#F1DFFF" p-id="2025"></path><path d="M730 373.1l-68.73 48a26.74 26.74 0 0 1-38-7.68L541.31 283a32.17 32.17 0 0 0-54.46 0l-82 130.42a26.76 26.76 0 0 1-38 7.68l-68.72-48c-21.95-15.34-51.94 1.28-50.55 28l14.2 274.71A71.84 71.84 0 0 0 333.53 744h361.11a71.82 71.82 0 0 0 71.73-68.12l14.21-274.71C782 374.38 752 357.76 730 373.1z" fill="#BE85FF" p-id="2026"></path><path d="M631.83 645.15H396.34a27.67 27.67 0 1 1 0-55.34h235.49a27.67 27.67 0 0 1 0 55.34z" fill="#F1DFFF" p-id="2027"></path></svg>