<?xml version="1.0" standalone="no"?><!DOCTYPE svg PUBLIC "-//W3C//DTD SVG 1.1//EN" "http://www.w3.org/Graphics/SVG/1.1/DTD/svg11.dtd"><svg t="1703395323180" class="icon" viewBox="0 0 1024 1024" version="1.1" xmlns="http://www.w3.org/2000/svg" p-id="5948" xmlns:xlink="http://www.w3.org/1999/xlink" width="200" height="200"><path d="M876.9 371.9c-39.3-91.2-112.2-163.8-203.5-202.8 25.5-20.1 57.1-31 89.6-31 80.1 0 145 64.7 145 144.6 0 33.6-11.7 64.6-31.1 89.2zM149.8 376.9C129.2 351 118 318.8 118 285.7c0-81.6 66.3-147.7 148.1-147.7 34.6 0 66.3 11.9 91.5 31.7-93.3 39.9-167.7 114-207.8 207.2z" fill="#bfbfbf" p-id="5949"></path><path d="M773.2 776.4c60.5-63.9 97.8-149.8 97.8-244.6C871 334.7 710.7 175 513 175S155 334.7 155 531.8c0 94.6 37.2 180.4 97.5 244.3l-49.7 49.5c-6.7 6.7-10.8 15.9-10.8 26.1 0 20.4 16.6 36.9 37 36.9 9.8 0 19.2-3.9 26.2-10.8l53.4-53.2c57.9 40.3 128.3 64.1 204.3 64.1 73.2 0.1 144.6-22.4 204.6-64.3l53.8 53.6c6.6 6.6 15.8 10.7 25.9 10.7 20.2 0 36.6-16.3 36.6-36.5 0-10.1-4.1-19.2-10.7-25.8l-49.9-50z m-58.7-203c0 18.1-14.7 32.8-32.8 32.8H499.3c-18.1 0-32.8-14.7-32.8-32.8V390.9c0-18.1 14.7-32.8 32.8-32.8 18.1 0 32.8 14.7 32.8 32.8v149.7h149.7c18.1 0 32.7 14.7 32.7 32.8z" fill="#bfbfbf" p-id="5950"></path></svg>