<?xml version="1.0" standalone="no"?><!DOCTYPE svg PUBLIC "-//W3C//DTD SVG 1.1//EN" "http://www.w3.org/Graphics/SVG/1.1/DTD/svg11.dtd"><svg t="1703254610869" class="icon" viewBox="0 0 1024 1024" version="1.1" xmlns="http://www.w3.org/2000/svg" p-id="7383" xmlns:xlink="http://www.w3.org/1999/xlink" width="200" height="200"><path d="M948.338 87.78a47.56 47.56 0 0 0-24.462-12.687L687.218 56.036a47.73 47.73 0 0 0-6.258 95.175l124.587 12.686-161.565 164.978a409.259 409.259 0 0 0-155.477-82.49A353.621 353.621 0 0 0 65.877 519.453a364.885 364.885 0 0 0 267.378 438.045A356.58 356.58 0 0 0 761.856 684.43a363.634 363.634 0 0 0-49.493-279.154l149.049-158.663-6.258 114.233a48.81 48.81 0 0 0 43.804 50.745 48.014 48.014 0 0 0 49.494-44.43l18.773-241.095a45.511 45.511 0 0 0-18.773-38.059z m-291.84 571.05A251.62 251.62 0 0 1 351.8 849.237a257.138 257.138 0 0 1-186.482-310.954 251.335 251.335 0 0 1 304.583-190.35A265.785 265.785 0 0 1 656.498 658.83z m0 0" fill="#2177f1" p-id="7384"></path></svg>