<?xml version="1.0" standalone="no"?><!DOCTYPE svg PUBLIC "-//W3C//DTD SVG 1.1//EN" "http://www.w3.org/Graphics/SVG/1.1/DTD/svg11.dtd"><svg t="1703161140582" class="icon" viewBox="0 0 1024 1024" version="1.1" xmlns="http://www.w3.org/2000/svg" p-id="1289" xmlns:xlink="http://www.w3.org/1999/xlink" width="200" height="200"><path d="M670.64 908.09a1962.1 1962.1 0 0 1-312.53 0 262.4 262.4 0 0 1-240.67-240.66 1962.1 1962.1 0 0 1 0-312.53 262.4 262.4 0 0 1 240.67-240.67 1962.1 1962.1 0 0 1 312.53 0A262.4 262.4 0 0 1 911.3 354.9a1962.1 1962.1 0 0 1 0 312.53 262.4 262.4 0 0 1-240.66 240.66z" fill="#D3EEFF" p-id="1290"></path><path d="M801.61 422.67l-2.41-30.13a145.89 145.89 0 0 0-133.82-133.82l-30.13-2.41c-36-2.87-86.75-4.31-122.78-4.31s-86.83 1.44-122.78 4.31l-30.14 2.41a145.9 145.9 0 0 0-133.82 133.82l-2.63 33c-2.68 33.5-2.68 88.32 0 121.83l2.63 33a145.9 145.9 0 0 0 133.82 133.74l30.14 2.41c15.11 1.21 32.84 2.16 51 2.86l48.42 43.26a38.7 38.7 0 0 0 51.57 0l48.64-43.47c16.37-0.67 32.23-1.56 45.93-2.65l30.13-2.41A145.89 145.89 0 0 0 799.2 580.29l2.41-30.14c3.06-20.1 2.87-91.53 0-127.48z" fill="#39B2FF" p-id="1291"></path><path d="M349.58 527.91a43.76 43.76 0 1 1 43.76-43.76 43.76 43.76 0 0 1-43.76 43.76z m162.88 0a43.76 43.76 0 1 1 43.76-43.76 43.76 43.76 0 0 1-43.76 43.76z m162.88 0a43.76 43.76 0 1 1 43.76-43.76 43.76 43.76 0 0 1-43.76 43.76z" fill="#D3EEFF" p-id="1292"></path></svg>