<?xml version="1.0" standalone="no"?><!DOCTYPE svg PUBLIC "-//W3C//DTD SVG 1.1//EN" "http://www.w3.org/Graphics/SVG/1.1/DTD/svg11.dtd"><svg t="1703058126991" class="icon" viewBox="0 0 1024 1024" version="1.1" xmlns="http://www.w3.org/2000/svg" p-id="29683" xmlns:xlink="http://www.w3.org/1999/xlink" width="200" height="200"><path d="M665.7 167.2c-41-41.1-95.7-63.7-153.8-63.7s-112.7 22.6-153.8 63.7c-41.1 41-63.7 95.7-63.7 153.8v113.4h99.9V321c0-64.9 52.8-117.6 117.6-117.6 64.9 0 117.6 52.8 117.6 117.6v113.4h99.9V321c0-58.1-22.6-112.7-63.7-153.8z" fill="#F74D7A" p-id="29684"></path><path d="M759.1 471.5v261.9H264.8V471.5h494.3m9.2-80H255.6c-38.9 0-70.8 31.8-70.8 70.8v280.3c0 38.9 31.8 70.8 70.8 70.8h512.8c38.9 0 70.8-31.9 70.7-70.9V462.3c0-38.9-31.8-70.8-70.8-70.8zM512 702.8c-30.2 0-54.9-24.7-54.9-54.9v-57.3c0-30.2 24.7-54.9 54.9-54.9s54.9 24.7 54.9 54.9v57.3c0 30.2-24.7 54.9-54.9 54.9z" fill="#F74D7A" p-id="29685"></path></svg>