<?xml version="1.0" standalone="no"?><!DOCTYPE svg PUBLIC "-//W3C//DTD SVG 1.1//EN" "http://www.w3.org/Graphics/SVG/1.1/DTD/svg11.dtd"><svg t="1703058136994" class="icon" viewBox="0 0 1024 1024" version="1.1" xmlns="http://www.w3.org/2000/svg" p-id="29844" xmlns:xlink="http://www.w3.org/1999/xlink" width="200" height="200"><path d="M729.6 600.7H294.4V321c0-58.1 22.6-112.8 63.7-153.8 41.1-41.1 95.7-63.7 153.8-63.7s112.8 22.6 153.8 63.7c41.1 41.1 63.7 95.7 63.7 153.8v279.7h0.2z m-335.2-100h235.1V321c0-64.8-52.7-117.6-117.6-117.6-64.8 0-117.6 52.7-117.6 117.6v179.7h0.1z" fill="#F74D7A" p-id="29845"></path><path d="M768.4 813.4H255.6c-39 0-70.8-31.9-70.8-70.8V462.3c0-39 31.9-70.8 70.8-70.8h512.7c39 0 70.8 31.9 70.8 70.8v280.2c0.1 39-31.8 70.9-70.7 70.9z" fill="#F74D7A" p-id="29846"></path><path d="M512 717.8c-30.2 0-54.9-24.7-54.9-54.9v-57.3c0-30.2 24.7-54.9 54.9-54.9s54.9 24.7 54.9 54.9v57.3c0 30.2-24.7 54.9-54.9 54.9z" fill="#FFFFFF" p-id="29847"></path></svg>