<?xml version="1.0" standalone="no"?><!DOCTYPE svg PUBLIC "-//W3C//DTD SVG 1.1//EN" "http://www.w3.org/Graphics/SVG/1.1/DTD/svg11.dtd"><svg t="1703408909446" class="icon" viewBox="0 0 1024 1024" version="1.1" xmlns="http://www.w3.org/2000/svg" p-id="4154" xmlns:xlink="http://www.w3.org/1999/xlink" width="200" height="200"><path d="M635.8528 757.8624c-12.544-117.6064-94.0544-214.5792-203.264-249.856 57.856-32.0512 97.024-93.696 97.024-164.5568 0-103.8336-84.1728-188.0064-188.0064-188.0064C237.7728 155.4944 153.6 239.6672 153.6 343.5008c0 70.8096 39.168 132.4544 97.024 164.5568-109.2096 35.2768-190.72 132.1984-203.264 249.856-1.792 16.9984 11.6224 31.744 28.7232 31.744h531.0464c17.1008-0.0512 30.5152-14.7968 28.7232-31.7952z" fill="#A5ADF6" p-id="4155"></path><path d="M968.192 857.7536c-15.9744-145.0496-119.6544-264.6016-258.6112-308.0704 73.6256-39.5264 123.4432-115.5584 123.4432-202.8544 0-128-107.1104-231.7824-239.2064-231.7824-132.096 0-239.2064 103.7824-239.2064 231.7824 0 87.3472 49.8688 163.328 123.4432 202.8544-138.9568 43.4688-242.688 163.0208-258.6112 308.0704-2.304 20.9408 14.7968 39.168 36.5568 39.168h675.6864c21.6576 0 38.8096-18.2272 36.5056-39.168z" fill="#A5ADF6" p-id="4156"></path><path d="M607.1296 789.6064c17.1008 0 30.5152-14.7968 28.7232-31.744-12.544-117.6064-94.0544-214.5792-203.264-249.856 57.856-32.0512 97.024-93.696 97.024-164.5568 0-71.7312-40.192-134.0928-99.2768-165.7856-46.592 42.2912-75.7248 102.4-75.7248 169.1136 0 87.3472 49.8688 163.328 123.4432 202.8544-116.48 36.4544-208.1792 126.3616-244.1728 239.9232h373.248z" fill="#635DF7" p-id="4157"></path><path d="M731.136 809.5744H471.296c-22.6304 0-40.96-18.3296-40.96-40.96s18.3296-40.96 40.96-40.96h259.7888c22.6304 0 40.96 18.3296 40.96 40.96s-18.3296 40.96-40.9088 40.96z" fill="#FFFFFF" p-id="4158"></path></svg>