<?xml version="1.0" standalone="no"?><!DOCTYPE svg PUBLIC "-//W3C//DTD SVG 1.1//EN" "http://www.w3.org/Graphics/SVG/1.1/DTD/svg11.dtd"><svg t="1703395306048" class="icon" viewBox="0 0 1024 1024" version="1.1" xmlns="http://www.w3.org/2000/svg" p-id="5602" xmlns:xlink="http://www.w3.org/1999/xlink" width="200" height="200"><path d="M513 98.2c-229.2 0-415 185.8-415 415s185.8 415 415 415 415-185.8 415-415-185.8-415-415-415zM738.9 533L599.1 672.8c-10.9 10.9-28.6 10.9-39.5 0-10.9-10.9-10.9-28.6 0-39.5l86.7-86.7H313.6c-11.6 0-21.7-5.9-27.7-14.9-4.3-4.9-7-11.4-7-18.5s2.6-13.6 7-18.5c5.9-9 16.1-14.9 27.7-14.9h332.6l-86.7-86.7c-5.5-5.5-8.2-12.6-8.2-19.8 0-7.2 2.7-14.3 8.2-19.8 10.9-10.9 28.6-10.9 39.5 0l139.8 139.8c11 11.1 11 28.8 0.1 39.7z" fill="#bfbfbf" p-id="5603"></path></svg>