<?xml version="1.0" standalone="no"?><!DOCTYPE svg PUBLIC "-//W3C//DTD SVG 1.1//EN" "http://www.w3.org/Graphics/SVG/1.1/DTD/svg11.dtd"><svg t="1703163791065" class="icon" viewBox="0 0 1024 1024" version="1.1" xmlns="http://www.w3.org/2000/svg" p-id="7071" xmlns:xlink="http://www.w3.org/1999/xlink" width="200" height="200"><path d="M962.623232 0c-7.68 0-14.848 1.536-22.016 4.096l-901.12 348.16C7.743232 364.544-8.128768 399.872 4.159232 431.616c6.144 15.36 17.92 27.648 32.768 34.304l364.032 156.672 157.184 364.544c10.24 23.04 32.768 36.864 56.32 36.864 8.192 0 16.384-1.536 24.064-5.12 15.36-6.656 27.136-18.944 33.28-34.304l347.648-901.12c12.288-31.744-3.584-67.072-35.328-79.36-6.656-2.56-13.824-4.096-21.504-4.096z" p-id="7072" fill="#8a8a8a"></path></svg>