<?xml version="1.0" standalone="no"?><!DOCTYPE svg PUBLIC "-//W3C//DTD SVG 1.1//EN" "http://www.w3.org/Graphics/SVG/1.1/DTD/svg11.dtd"><svg t="1703249744590" class="icon" viewBox="0 0 1024 1024" version="1.1" xmlns="http://www.w3.org/2000/svg" p-id="5475" xmlns:xlink="http://www.w3.org/1999/xlink" width="200" height="200"><path d="M244.352 418.432l323.498667 43.733333 40.576 315.136 239.317333-600.746666-603.392 241.92z m-130.816 47.786667a29.312 29.312 0 0 1-18.773333-8.661334 32.554667 32.554667 0 0 1-9.088-19.285333 31.146667 31.146667 0 0 1 19.754666-34.090667l788.906667-316.16a28.629333 28.629333 0 0 1 18.304-2.005333c6.101333 1.322667 11.52 4.394667 16.213333 9.130667 4.693333 4.736 7.765333 10.154667 9.130667 16.256a28.586667 28.586667 0 0 1-2.048 18.346666l-314.368 788.778667a30.976 30.976 0 0 1-13.696 15.786667 32 32 0 0 1-20.778667 4.053333 31.616 31.616 0 0 1-18.773333-9.173333 29.781333 29.781333 0 0 1-8.618667-18.773334l-49.706666-390.357333-396.458667-53.845333z" fill="#e6e6e6" fill-opacity=".65" p-id="5476"></path></svg>