<?xml version="1.0" standalone="no"?><!DOCTYPE svg PUBLIC "-//W3C//DTD SVG 1.1//EN" "http://www.w3.org/Graphics/SVG/1.1/DTD/svg11.dtd"><svg t="1703161149490" class="icon" viewBox="0 0 1024 1024" version="1.1" xmlns="http://www.w3.org/2000/svg" p-id="1434" xmlns:xlink="http://www.w3.org/1999/xlink" width="200" height="200"><path d="M673.64 908.09a1962.1 1962.1 0 0 1-312.53 0 262.4 262.4 0 0 1-240.67-240.66 1962.1 1962.1 0 0 1 0-312.53 262.4 262.4 0 0 1 240.67-240.67 1962.1 1962.1 0 0 1 312.53 0A262.4 262.4 0 0 1 914.3 354.9a1962.1 1962.1 0 0 1 0 312.53 262.4 262.4 0 0 1-240.66 240.66z" fill="#FFE4CF" p-id="1435"></path><path d="M773.86 460.34a55 55 0 0 0 10.79-57.09 373.82 373.82 0 0 0-38.77-70 52.39 52.39 0 0 0-42.35-20.6 54.89 54.89 0 0 0-11.5 1.19 77.31 77.31 0 0 1-16.89 1.88 79.09 79.09 0 0 1-39.14-10.5 75.8 75.8 0 0 1-35.53-44.11 54.89 54.89 0 0 0-44.11-37.68 334.06 334.06 0 0 0-40.21-2.43 316.12 316.12 0 0 0-39.38 2.43 54.87 54.87 0 0 0-44.11 37.68 78.1 78.1 0 0 1-91.54 52.79 54.82 54.82 0 0 0-11.5-1.19 56 56 0 0 0-43.43 20.6 275.19 275.19 0 0 0-39.84 68.91 55 55 0 0 0 10.79 57.09 79.08 79.08 0 0 1 0 105.56A55 55 0 0 0 246.35 622a295.42 295.42 0 0 0 39.84 68.91 54.25 54.25 0 0 0 42.43 20.61 55.6 55.6 0 0 0 11.43-1.2 80.14 80.14 0 0 1 17-1.83 77.3 77.3 0 0 1 74.54 54.62 55 55 0 0 0 44.12 37.7 251.88 251.88 0 0 0 39.83 3.19c13 0 26.83-1 39.76-2.21a54.94 54.94 0 0 0 44.12-37.69 78.5 78.5 0 0 1 74.64-54.67A77.44 77.44 0 0 1 691 711.3a50.48 50.48 0 0 0 11 1.2 55.3 55.3 0 0 0 42.84-20.61A273.45 273.45 0 0 0 784.65 623a55 55 0 0 0-10.79-57.09 79.07 79.07 0 0 1 0-105.57z" fill="#FF6E1F" p-id="1436"></path><path d="M515.5 512.5m-109.5 0a109.5 109.5 0 1 0 219 0 109.5 109.5 0 1 0-219 0Z" fill="#FFE4CF" p-id="1437"></path></svg>