<?xml version="1.0" standalone="no"?><!DOCTYPE svg PUBLIC "-//W3C//DTD SVG 1.1//EN" "http://www.w3.org/Graphics/SVG/1.1/DTD/svg11.dtd"><svg t="1703573176180" class="icon" viewBox="0 0 1024 1024" version="1.1" xmlns="http://www.w3.org/2000/svg" p-id="25714" xmlns:xlink="http://www.w3.org/1999/xlink" width="200" height="200"><path d="M0 0m228.968944 0l566.062112 0q228.968944 0 228.968944 228.968944l0 566.062112q0 228.968944-228.968944 228.968944l-566.062112 0q-228.968944 0-228.968944-228.968944l0-566.062112q0-228.968944 228.968944-228.968944Z" fill="#FF69A5" p-id="25715"></path><path d="M562.62885 409.907836l111.759741 108.743712-209.41118 184.510807c-22.237973 19.593381-55.809908 18.762733-77.051866-1.90553-21.241958-20.668263-22.989754-54.205853-4.012044-76.971727l178.715349-214.377262z" fill="#FFFFFF" opacity=".8" p-id="25716"></path><path d="M257.798678 452.372671c-13.818276 2.077257-27.015791 7.807841-36.488745 13.787746-5.940472 3.751275-14.070142 3.688944-19.010783-1.305123-4.941913-4.994067-4.891031-13.077943 0.842097-17.138325 12.986355-9.194375 31.525207-17.593719 50.875628-20.502897 25.6-3.84795 55.138266 1.766877 74.047284 30.678022 18.837784 28.800477 19.469993 55.446102 9.586166 79.912706-9.367374 23.189466-27.992725 43.838648-45.569908 62.437287-2.117963 2.241352-4.223205 4.45599-6.30555 6.64646-15.926062 16.75035-30.566082 32.148512-40.156065 48.271741-10.38247 17.456338-13.851349 34.135453-6.118559 52.896914 6.290286 15.26078 15.077605 24.205834 24.708294 29.072696 9.778246 4.941913 21.684631 6.306822 35.097123 4.08964 23.86874-3.944626 50.537262-18.978981 72.323657-40.256557 5.025868-4.907568 13.035965-5.435468 18.297163-0.778494 5.259925 4.655702 5.77765 12.725585 0.795031 17.678947-24.860939 24.717198-56.594763 43.387071-87.267697 48.45746-17.373655 2.871016-35.01444 1.452681-50.720438-6.484909-15.854827-8.012641-28.495185-22.044621-36.754603-42.08322-11.665968-28.304378-5.356601-53.521491 7.774767-75.597913 11.167324-18.776725 27.988909-36.435319 43.614768-52.8384 2.101426-2.205734 4.181227-4.388571 6.221595-6.548512 17.961342-19.005694 33.163607-36.399702 40.471533-54.492064 6.792745-16.816497 6.947935-34.692611-7.287573-56.457382-11.767732-17.991871-29.720169-22.341009-48.975185-19.445823z" fill="#FFFFFF" opacity=".5" p-id="25717"></path><path d="M681.213138 398.388154m-96.184163-93.587286a134.201242 134.201242 0 1 0 192.368326 187.174572 134.201242 134.201242 0 1 0-192.368326-187.174572Z" fill="#FFFFFF" p-id="25718"></path></svg>