<?xml version="1.0" standalone="no"?><!DOCTYPE svg PUBLIC "-//W3C//DTD SVG 1.1//EN" "http://www.w3.org/Graphics/SVG/1.1/DTD/svg11.dtd"><svg t="1703573083178" class="icon" viewBox="0 0 1024 1024" version="1.1" xmlns="http://www.w3.org/2000/svg" p-id="20554" xmlns:xlink="http://www.w3.org/1999/xlink" width="200" height="200"><path d="M136.180685 633.259544L272.322816 22.667204S340.393881-33.120361 410.000385 30.344392l60.393877 54.76394-310.158389 571.694588-24.055188-23.543376zM202.2045 699.28336l328.071828-603.938778s184.252508-10.748063 196.024196 164.803633l-481.615584 481.615584-42.48044-42.480439zM281.535441 778.102488l481.103772-481.615584s160.19732-8.700813 164.803632 196.024196l-603.938777 328.071828L281.535441 778.102488zM365.984508 862.551555l573.230025-311.182014s138.701194 100.315255 60.905691 199.095071L391.575134 888.142181l-25.590626-25.590626z" fill="#3366FF" p-id="20555"></path><path d="M115.708184 684.952609l220.591197 220.591198-73.189191 73.18919s-104.921567 101.850692-220.591197 0c0 0-106.968817-106.968817 18.425251-239.016448l54.76394-54.76394z" fill="#AEC9FF" p-id="20556"></path></svg>