<?xml version="1.0" standalone="no"?><!DOCTYPE svg PUBLIC "-//W3C//DTD SVG 1.1//EN" "http://www.w3.org/Graphics/SVG/1.1/DTD/svg11.dtd"><svg t="1702994212168" class="icon" viewBox="0 0 1024 1024" version="1.1" xmlns="http://www.w3.org/2000/svg" p-id="1348" xmlns:xlink="http://www.w3.org/1999/xlink" width="128" height="128"><path d="M920.981333 542.933333a1198.890667 1198.890667 0 0 1-94.933333-28.864 502.144 502.144 0 0 1-80.149333-36.501333l-8.533334-4.928a23.893333 23.893333 0 0 0-24.277333 0 499.328 499.328 0 0 1-88.533333 41.450667c-29.354667 10.368-61.013333 19.989333-94.933334 28.864A23.552 23.552 0 0 0 512 565.674667v165.290666C512 830.08 646.613333 938.666667 725.333333 938.666667c78.762667 0 213.333333-108.586667 213.333334-207.701334l-0.085334-165.376a23.530667 23.530667 0 0 0-17.6-22.656z" fill="#FF8200" fill-opacity=".1" p-id="1349"></path><path d="M533.653333 91.349333l15.36 8.938667a899.52 899.52 0 0 0 144.277334 66.389333c52.885333 18.837333 109.845333 36.352 170.88 52.48a42.688 42.688 0 0 1 31.68 41.173334L896 561.024C896 741.248 653.781333 938.666667 512.021333 938.666667 370.304 938.666667 128 741.248 128 561.024V260.501333c0-19.370667 13.013333-36.309333 31.701333-41.322666a2110.997333 2110.997333 0 0 0 170.88-52.48 894.677333 894.677333 0 0 0 159.36-75.306667 42.645333 42.645333 0 0 1 43.733334-0.042667z m-21.781333 61.376l-3.904 2.282667a958.208 958.208 0 0 1-155.861333 71.978667 2132.714667 2132.714667 0 0 1-155.157334 48.469333L192 276.757333v284.266667c0 129.386667 193.770667 308.970667 315.306667 313.557333l4.714666 0.085334C633.216 874.666667 832 692.117333 832 561.066667l-0.149333-284.330667-4.8-1.28a2205.994667 2205.994667 0 0 1-136.917334-42.069333l-18.346666-6.421334a964.842667 964.842667 0 0 1-155.008-71.381333l-4.906667-2.858667z m230.613333 387.392a32 32 0 1 1 45.226667 45.248l-150.826667 150.848a32 32 0 0 1-45.269333 0l-90.496-90.496a32 32 0 0 1 45.226667-45.269333l67.925333 67.904zM501.333333 234.666667a138.666667 138.666667 0 0 1 88.96 245.056c19.114667 7.957333 37.077333 18.709333 53.312 31.978666a32 32 0 0 1-40.512 49.536 151.466667 151.466667 0 0 0-247.253333 117.333334 32 32 0 0 1-64 0.021333c0-86.613333 51.093333-161.28 124.8-195.52A138.666667 138.666667 0 0 1 501.333333 234.666667z m0 64a74.666667 74.666667 0 1 0 0 149.333333 74.666667 74.666667 0 0 0 0-149.333333z" fill="#FF8200" p-id="1350"></path></svg>