<?xml version="1.0" standalone="no"?><!DOCTYPE svg PUBLIC "-//W3C//DTD SVG 1.1//EN" "http://www.w3.org/Graphics/SVG/1.1/DTD/svg11.dtd"><svg t="1703058150283" class="icon" viewBox="0 0 1024 1024" version="1.1" xmlns="http://www.w3.org/2000/svg" p-id="30006" xmlns:xlink="http://www.w3.org/1999/xlink" width="200" height="200"><path d="M835.1 766.6c14.9 0 26.9 12.1 26.9 26.9s-12.1 26.9-26.9 26.9H188.9c-14.9 0-26.9-12.1-26.9-26.9s12.1-26.9 26.9-26.9h646.2zM784.5 149.4l12.7 12.7c38.6 38.6 38.6 101.1 0 139.7L433.6 665.1c-18 18-40.8 30.6-65.7 36.2L239.8 730c-20.1 4.5-37.6-14.2-31.8-33.9l36.5-123.6c6.4-21.6 18-41.2 34-57.1l366.3-366c38.5-38.6 101.1-38.6 139.7 0z" fill="#DE4EE3" p-id="30007"></path><path d="M669.5 353.2l-74.6-74.6c-6.4-6.4-6.4-16.8 0-23.2l24.2-24.2c6.4-6.4 16.8-6.4 23.2 0l74.6 74.6c6.4 6.4 6.4 16.8 0 23.2l-24.2 24.2c-6.4 6.4-16.8 6.4-23.2 0z" fill="#FFFFFF" p-id="30008"></path></svg>