<?xml version="1.0" standalone="no"?><!DOCTYPE svg PUBLIC "-//W3C//DTD SVG 1.1//EN" "http://www.w3.org/Graphics/SVG/1.1/DTD/svg11.dtd"><svg t="1703408800383" class="icon" viewBox="0 0 1024 1024" version="1.1" xmlns="http://www.w3.org/2000/svg" p-id="16475" xmlns:xlink="http://www.w3.org/1999/xlink" width="200" height="200"><path d="M565.4528 88.576l304.3328 175.7184c27.7504 16.0256 44.8512 45.6192 44.8512 77.6704v351.3856c0 32.0512-17.1008 61.6448-44.8512 77.6704l-304.3328 175.7184a89.69216 89.69216 0 0 1-89.7024 0l-304.3328-175.7184a89.68704 89.68704 0 0 1-44.8512-77.6704V341.9648c0-32.0512 17.1008-61.6448 44.8512-77.6704L475.7504 88.576c27.7504-16.0256 61.952-16.0256 89.7024 0z" fill="#F9E230" p-id="16476"></path><path d="M869.7856 412.672l-304.3328-175.7184a89.69216 89.69216 0 0 0-89.7024 0L171.4688 412.672a89.68704 89.68704 0 0 0-44.8512 77.6704v203.008c0 32.0512 17.1008 61.6448 44.8512 77.6704l304.3328 175.6672c27.7504 16.0256 61.952 16.0256 89.7024 0l304.3328-175.6672c27.7504-16.0256 44.8512-45.6192 44.8512-77.6704V490.3424a89.84064 89.84064 0 0 0-44.9024-77.6704z" fill="#F6DB2D" p-id="16477"></path><path d="M869.7856 560.9984l-304.3328-175.7184a89.69216 89.69216 0 0 0-89.7024 0l-304.3328 175.7184a89.68704 89.68704 0 0 0-44.8512 77.6704v54.6304c0 32.0512 17.1008 61.6448 44.8512 77.6704l304.3328 175.6672c27.7504 16.0256 61.952 16.0256 89.7024 0l304.3328-175.6672c27.7504-16.0256 44.8512-45.6192 44.8512-77.6704v-54.6304c0-32-17.1008-61.6448-44.8512-77.6704z" fill="#F5D228" p-id="16478"></path><path d="M565.4528 533.7088a89.69216 89.69216 0 0 0-89.7024 0l-304.3328 175.7184a89.35424 89.35424 0 0 0-31.5904 30.8224c7.68 12.544 18.432 23.1936 31.5904 30.8224l304.3328 175.6672c27.7504 16.0256 61.952 16.0256 89.7024 0l304.3328-175.6672c13.1584-7.5776 23.9104-18.2784 31.5904-30.8224-7.68-12.544-18.432-23.1936-31.5904-30.8224l-304.3328-175.7184z" fill="#F2C824" p-id="16479"></path><path d="M475.7504 682.0864l-229.1712 132.3008 229.1712 132.3008c27.7504 16.0256 61.952 16.0256 89.7024 0l229.1712-132.3008-229.1712-132.3008a89.69216 89.69216 0 0 0-89.7024 0z" fill="#F0BF21" p-id="16480"></path><path d="M354.9696 680.6528c-14.3872 0-27.392-8.6016-33.024-21.9136L214.5792 404.4288c-7.68-18.2272 0.8192-39.2704 19.0976-46.9504 18.2272-7.68 39.2704 0.8192 46.9504 19.0976l71.9872 170.5984 61.952-168.96a35.82464 35.82464 0 0 1 45.9776-21.2992 35.82464 35.82464 0 0 1 21.2992 45.9776L388.608 657.152a35.85024 35.85024 0 0 1-32.768 23.5008h-0.8704zM547.9424 680.6528c-19.8144 0-35.84-16.0256-35.84-35.84V390.5024c0-19.8144 16.0256-35.84 35.84-35.84s35.84 16.0256 35.84 35.84v254.3104c0 19.8144-16.0768 35.84-35.84 35.84zM664.2176 680.6528c-19.8144 0-35.84-16.0256-35.84-35.84V390.5024c0-19.8144 16.0256-35.84 35.84-35.84h77.9776c56.4224 0 102.2976 45.8752 102.2976 102.2976s-45.8752 102.2976-102.2976 102.2976h-42.1376v85.5552c0 19.8144-16.0256 35.84-35.84 35.84z m35.84-193.0752h42.1376c16.896 0 30.6176-13.7216 30.6176-30.6176s-13.7216-30.6176-30.6176-30.6176h-42.1376v61.2352z" fill="#FFFFFF" p-id="16481"></path></svg>