<?xml version="1.0" standalone="no"?><!DOCTYPE svg PUBLIC "-//W3C//DTD SVG 1.1//EN" "http://www.w3.org/Graphics/SVG/1.1/DTD/svg11.dtd"><svg t="1703254653180" class="icon" viewBox="0 0 1024 1024" version="1.1" xmlns="http://www.w3.org/2000/svg" p-id="8535" xmlns:xlink="http://www.w3.org/1999/xlink" width="200" height="200"><path d="M598.058159 188.898171c-138.75727 0-251.727791 112.765864-251.727791 251.523134 0 138.552613 112.868192 251.420805 251.727791 251.420805 138.859598 0 251.830119-112.765864 251.830119-251.420805C849.990607 301.664035 736.917758 188.898171 598.058159 188.898171L598.058159 188.898171zM598.058159 799.082242c-88.51404 0-169.455781-32.233437-232.183072-85.444189L314.199261 765.31388l84.830219 84.830219-75.927651 75.825322-84.830219-84.830219-98.439892 98.235235-75.927651-75.825322 98.337564-98.235235-89.844309-89.741981 75.927651-75.825322 89.844309 89.741981 57.099231-56.996902c-35.507944-55.666633-56.382932-121.463775-56.382932-192.070351 0-197.800739 161.064855-358.660937 359.172579-358.660937 198.107725 0 359.274908 160.860198 359.274908 358.660937C957.333067 638.119716 796.165884 799.082242 598.058159 799.082242L598.058159 799.082242z" p-id="8536" fill="#f608c8"></path></svg>