<?xml version="1.0" standalone="no"?><!DOCTYPE svg PUBLIC "-//W3C//DTD SVG 1.1//EN" "http://www.w3.org/Graphics/SVG/1.1/DTD/svg11.dtd"><svg t="1703573309821" class="icon" viewBox="0 0 1024 1024" version="1.1" xmlns="http://www.w3.org/2000/svg" p-id="33342" xmlns:xlink="http://www.w3.org/1999/xlink" width="200" height="200"><path d="M723.029333 558.762667a16.213333 16.213333 0 0 0-6.058666-7.253334c-39.253333-19.712-67.157333-38.570667-82.858667-55.637333a517.717333 517.717333 0 0 1-43.690667-57.514667v-8.106666a119.637333 119.637333 0 0 0-16.554666-61.952c-13.056-21.504-27.904-27.733333-48.896-26.88h-38.4c-11.349333 0-30.464 14.421333-39.253334 21.504l-73.216 69.12a35.925333 35.925333 0 0 0-10.496 24.32L354.986667 587.52c0 2.645333 0.853333 5.376 2.56 8.021333 26.282667 26.965333 58.538667 8.106667 58.538666-17.92l8.704-104.192c0-0.853333 0-1.706667 0.853334-1.706666l20.906666-25.258667c1.792-0.853333 3.584 0 3.584 1.877333v154.453334c-16.64 72.704-23.637333 94.208-25.344 99.669333-3.498667 4.437333-10.496 13.397333-20.992 27.818667-13.909333 18.773333-42.666667 59.221333-50.602666 66.474666a32.597333 32.597333 0 0 0-6.826667 42.24 31.146667 31.146667 0 0 0 25.173333 14.336 28.16 28.16 0 0 0 16.64-5.376c8.704-5.376 17.408-17.066667 63.658667-79.957333 8.704-11.690667 17.408-24.234667 19.968-26.965333 5.290667-7.168 12.288-14.336 33.28-104.96 0-1.024 0.853333-1.877333 1.706667-1.877334h31.402666c0.853333 0 0.853333 0 1.706667 0.853334 51.456 51.2 64.597333 67.413333 67.242667 71.850666 5.12 10.837333 8.704 58.368 9.557333 80.810667 0.853333 15.36 1.706667 28.757333 3.413333 38.656a29.866667 29.866667 0 0 0 30.634667 26.965333h4.266667a31.146667 31.146667 0 0 0 26.282666-34.986666c-0.853333-8.106667-1.706667-20.736-2.645333-34.133334-3.584-53.077333-6.997333-89.856-19.2-109.653333-6.144-9.813333-19.285333-26.88-68.096-76.288-0.853333 0-0.853333-0.853333-0.853333-1.792V546.986667c0-1.706667 2.56-2.730667 3.498666-1.706667 19.2 19.626667 47.957333 39.424 86.357334 60.074667 4.266667 2.474667 9.045333 3.754667 13.909333 3.669333 20.138667-2.816 37.546667-21.589333 28.842667-50.346667zM469.333333 234.666667a64 64 0 1 0 128 0 64 64 0 0 0-128 0zM0 512a512 512 0 1 1 1024 0A512 512 0 0 1 0 512z" fill="#f16d13" p-id="33343" data-spm-anchor-id="a313x.search_index.0.i18.70d63a81QOAudm" class=""></path></svg>