<?xml version="1.0" standalone="no"?><!DOCTYPE svg PUBLIC "-//W3C//DTD SVG 1.1//EN" "http://www.w3.org/Graphics/SVG/1.1/DTD/svg11.dtd"><svg t="1703573284876" class="icon" viewBox="0 0 1024 1024" version="1.1" xmlns="http://www.w3.org/2000/svg" p-id="32283" xmlns:xlink="http://www.w3.org/1999/xlink" width="200" height="200"><path d="M512 512m-512 0a512 512 0 1 0 1024 0 512 512 0 1 0-1024 0Z" fill="#349DFE" opacity=".06" p-id="32284"></path><path d="M516.266667 345.534359m-74.24 0a74.24 74.24 0 1 0 148.48 0 74.24 74.24 0 1 0-148.48 0Z" fill="#349DFE" p-id="32285"></path><path d="M691.528205 587.355897l-35.708718-30.391794-2.756923-3.544616L597.989744 441.107692a12.603077 12.603077 0 0 0-11.224616-6.957948H445.702564a12.734359 12.734359 0 0 0-11.224615 6.957948L379.405128 553.419487l-2.756923 3.544616-35.708718 30.391794a27.766154 27.766154 0 1 0 35.971282 42.338462l44.504616-37.874872 2.822564-3.610256 13.653333-27.963077v64.65641a12.537436 12.537436 0 0 1-3.610256 8.795898l-51.331282 51.462564a34.395897 34.395897 0 0 0 24.418461 58.683077h62.949744a48.64 48.64 0 0 1-10.83077-47.655385 49.952821 49.952821 0 0 1 48.311795-34.002051h47.261539a7.811282 7.811282 0 1 1 0 15.622564h-48.705641a32.820513 32.820513 0 0 0-2.625641 66.100513h121.435897a34.395897 34.395897 0 0 0 24.681026-58.683077l-51.265641-51.462564a12.274872 12.274872 0 0 1-3.610257-8.795898v-64.787692l13.653334 28.028718 2.822564 3.544615 44.504615 37.874872a27.700513 27.700513 0 1 0 35.905641-42.272821z" fill="#349DFE" p-id="32286"></path></svg>