<?xml version="1.0" standalone="no"?><!DOCTYPE svg PUBLIC "-//W3C//DTD SVG 1.1//EN" "http://www.w3.org/Graphics/SVG/1.1/DTD/svg11.dtd"><svg t="1703408769298" class="icon" viewBox="0 0 1025 1024" version="1.1" xmlns="http://www.w3.org/2000/svg" p-id="12723" xmlns:xlink="http://www.w3.org/1999/xlink" width="200.1953125" height="200"><path d="M479.214202 911.847619L15.976107 463.238095c-17.066667-17.066667-21.942857-46.32381-7.314286-65.828571L196.395154 119.466667c9.752381-14.628571 26.819048-21.942857 41.447619-21.942857h548.571429c17.066667 0 31.695238 7.314286 41.447619 21.942857l187.733333 275.504762c14.628571 21.942857 12.190476 48.761905-7.314285 65.828571L547.480869 911.847619c-19.504762 19.504762-48.761905 19.504762-68.266667 0z" fill="#FFC600" p-id="12724"></path><path d="M479.214202 741.180952c2.438095 2.438095 7.314286 7.314286 12.190476 9.752381-4.87619-2.438095-9.752381-4.87619-12.190476-9.752381" fill="#FFE27F" p-id="12725"></path><path d="M513.347535 672.914286l-153.6-151.161905c-7.314286-7.314286-17.066667-9.752381-24.380952-9.752381-31.695238 0-48.761905 39.009524-24.380953 63.390476l170.666667 165.790476c2.438095 2.438095 7.314286 7.314286 12.190476 9.752381s9.752381 4.87619 12.190477 4.876191h9.75238c12.190476 0 24.380952-4.87619 34.133334-14.628572l170.666666-165.790476c24.380952-21.942857 7.314286-63.390476-24.380952-63.390476-9.752381 0-19.504762 4.87619-24.380952 9.752381L513.347535 672.914286z" fill="#FFFFFF" p-id="12726"></path></svg>