<?xml version="1.0" standalone="no"?><!DOCTYPE svg PUBLIC "-//W3C//DTD SVG 1.1//EN" "http://www.w3.org/Graphics/SVG/1.1/DTD/svg11.dtd"><svg t="1703408918639" class="icon" viewBox="0 0 1024 1024" version="1.1" xmlns="http://www.w3.org/2000/svg" p-id="4317" xmlns:xlink="http://www.w3.org/1999/xlink" width="200" height="200"><path d="M515.9424 569.3952m-364.6976 0a364.6976 364.6976 0 1 0 729.3952 0 364.6976 364.6976 0 1 0-729.3952 0Z" fill="#A5ADF6" p-id="4318"></path><path d="M515.9424 712.3456c-78.7968 0-142.9504-64.1024-142.9504-142.8992S437.0944 426.496 515.9424 426.496c78.7968 0 142.8992 64.1024 142.8992 142.9504 0.0512 78.7968-64.1024 142.8992-142.8992 142.8992z m0-203.9296c-33.6384 0-61.0304 27.3408-61.0304 61.0304 0 33.6384 27.3408 60.9792 61.0304 60.9792 33.6384 0 60.9792-27.3408 60.9792-60.9792 0.0512-33.6896-27.3408-61.0304-60.9792-61.0304z" fill="#FFFFFF" p-id="4319"></path><path d="M515.9424 239.7696m-153.3952 0a153.3952 153.3952 0 1 0 306.7904 0 153.3952 153.3952 0 1 0-306.7904 0Z" fill="#A5ADF6" p-id="4320"></path><path d="M362.5984 238.5408c0 0.4096-0.0512 0.8192-0.0512 1.28 0 84.736 68.6592 153.3952 153.3952 153.3952s153.3952-68.6592 153.3952-153.3952c0-0.4096-0.0512-0.8192-0.0512-1.28-46.6432-21.6576-98.56-33.8432-153.3952-33.8432s-106.6496 12.1856-153.2928 33.8432z" fill="#635DF7" p-id="4321"></path><path d="M230.6048 743.6288m-153.3952 0a153.3952 153.3952 0 1 0 306.7904 0 153.3952 153.3952 0 1 0-306.7904 0Z" fill="#A5ADF6" p-id="4322"></path><path d="M230.6048 590.2336c-28.0576 0-54.3232 7.5776-76.9536 20.736 12.3904 109.1072 72.8576 203.6224 159.744 261.7856 42.496-27.2896 70.6048-74.9056 70.6048-129.1264 0-84.736-68.6592-153.3952-153.3952-153.3952z" fill="#635DF7" p-id="4323"></path><path d="M793.3952 743.6288m-153.3952 0a153.3952 153.3952 0 1 0 306.7904 0 153.3952 153.3952 0 1 0-306.7904 0Z" fill="#A5ADF6" p-id="4324"></path><path d="M793.3952 590.2336c-84.736 0-153.3952 68.6592-153.3952 153.3952 0 55.9104 29.9008 104.8064 74.5984 131.6352 87.7568-57.1392 149.3504-150.9376 163.072-259.7888a152.32 152.32 0 0 0-84.2752-25.2416z" fill="#635DF7" p-id="4325"></path></svg>