<?xml version="1.0" standalone="no"?><!DOCTYPE svg PUBLIC "-//W3C//DTD SVG 1.1//EN" "http://www.w3.org/Graphics/SVG/1.1/DTD/svg11.dtd"><svg t="1703395462856" class="icon" viewBox="0 0 1024 1024" version="1.1" xmlns="http://www.w3.org/2000/svg" p-id="6151" xmlns:xlink="http://www.w3.org/1999/xlink" width="200" height="200"><path d="M849.4 790.9L813.5 755l37.7-37.7c14.7-14.7 14.7-38.6 0-53.3-14.7-14.7-38.6-14.7-53.3 0l-37.7 37.7-53.3-53.3-31.1-31.2-37.8-37.7 19.8-41.3c27.2-56.9 37-121.9 21.4-183.1-30.9-121.8-138.1-200.8-256.2-201-145.4 0-263.7 118.3-263.7 263.7 0.2 114.8 74.9 219.7 191.9 253.8 58.2 17 120.8 10.8 177.1-11.8l39.2-15.7 35.2 35.2 179.2 179.2c18.7 18.6 48.9 18.6 67.5 0 18.6-18.8 18.6-49 0-67.6zM423 568.5c-83.2 0-150.7-67.5-150.7-150.7 0-83.2 67.5-150.7 150.7-150.7 83.2 0 150.7 67.5 150.7 150.7 0 83.2-67.5 150.7-150.7 150.7z" fill="#bfbfbf" p-id="6152" data-spm-anchor-id="a313x.collections_detail.0.i25.35cf3a81TjnYhr" class=""></path></svg>