<?xml version="1.0" standalone="no"?><!DOCTYPE svg PUBLIC "-//W3C//DTD SVG 1.1//EN" "http://www.w3.org/Graphics/SVG/1.1/DTD/svg11.dtd"><svg t="1703408884787" class="icon" viewBox="0 0 1024 1024" version="1.1" xmlns="http://www.w3.org/2000/svg" p-id="3668" xmlns:xlink="http://www.w3.org/1999/xlink" width="200" height="200"><path d="M509.3888 321.8944m-224.768 0a224.768 224.768 0 1 0 449.536 0 224.768 224.768 0 1 0-449.536 0Z" fill="#A5ADF6" p-id="3669"></path><path d="M847.5136 941.4144H171.2128c-44.0832 0-79.8208-35.7376-79.8208-79.8208v-7.8848c0-230.8096 187.136-417.9456 417.9456-417.9456s417.9456 187.136 417.9456 417.9456v7.8848c0.0512 44.0832-35.6864 79.8208-79.7696 79.8208z" fill="#A5ADF6" p-id="3670"></path><path d="M677.4784 471.04a416.45056 416.45056 0 0 0-168.0896-35.2768c-59.8016 0-116.6336 12.6464-168.0896 35.2768 41.1648 46.3872 101.2224 75.6224 168.0896 75.6224 66.8672 0.0512 126.9248-29.2352 168.0896-75.6224z" fill="#635DF7" p-id="3671"></path></svg>