<?xml version="1.0" standalone="no"?><!DOCTYPE svg PUBLIC "-//W3C//DTD SVG 1.1//EN" "http://www.w3.org/Graphics/SVG/1.1/DTD/svg11.dtd"><svg t="1703408924857" class="icon" viewBox="0 0 1024 1024" version="1.1" xmlns="http://www.w3.org/2000/svg" p-id="4482" xmlns:xlink="http://www.w3.org/1999/xlink" width="200" height="200"><path d="M631.2448 160.0512l79.6672 161.3824c8.2944 16.8448 24.3712 28.5184 42.9568 31.232l178.0736 25.856c46.7968 6.8096 65.4848 64.3072 31.5904 97.28l-128.8704 125.6448a56.97536 56.97536 0 0 0-16.384 50.4832l30.4128 177.3568c7.9872 46.592-40.9088 82.1248-82.7904 60.16l-159.2832-83.7632a56.94464 56.94464 0 0 0-53.0944 0L394.24 889.4464c-41.8304 22.016-90.7776-13.5168-82.7904-60.16l30.4128-177.3568c3.1744-18.4832-2.9696-37.376-16.384-50.4832L196.608 475.8016c-33.8432-33.024-15.1552-90.5216 31.5904-97.28l178.0736-25.856c18.5856-2.7136 34.6624-14.3872 42.9568-31.232l79.6672-161.3824c20.9408-42.3936 81.408-42.3936 102.3488 0z" fill="#A5ADF6" p-id="4483"></path><path d="M501.6576 151.3472l79.6672 161.3824c8.2944 16.8448 24.3712 28.5184 42.9568 31.232l178.0736 25.856c46.7968 6.8096 65.4848 64.3072 31.5904 97.28l-128.8704 125.6448a56.97536 56.97536 0 0 0-16.384 50.4832l30.4128 177.3568c7.9872 46.592-40.9088 82.1248-82.7904 60.16l-159.2832-83.7632a56.94464 56.94464 0 0 0-53.0944 0l-159.2832 83.7632c-41.8304 22.016-90.7776-13.5168-82.7904-60.16l30.4128-177.3568c3.1744-18.4832-2.9696-37.376-16.384-50.4832L67.0208 467.1488c-33.8432-33.024-15.1552-90.5216 31.5904-97.28l178.0736-25.856c18.5856-2.7136 34.6624-14.3872 42.9568-31.232L399.36 151.3472c20.8896-42.3936 81.3568-42.3936 102.2976 0z" fill="#A5ADF6" p-id="4484"></path><path d="M833.9968 467.1488c33.8432-33.024 15.1552-90.5216-31.5904-97.28l-178.0736-25.856c-18.5856-2.7136-34.6624-14.3872-42.9568-31.232L517.4272 183.296 449.28 321.4336a57.0624 57.0624 0 0 1-42.9568 31.232l-178.0736 25.856c-46.7968 6.8096-65.4848 64.3072-31.6416 97.28l128.8704 125.6448c13.4656 13.1072 19.5584 32 16.384 50.4832l-30.4128 177.3568c-1.5872 9.2672-0.9216 18.0736 1.4848 26.0608l111.0016-58.368c16.64-8.7552 36.4544-8.7552 53.0944 0l46.4896 24.4224 30.0032-15.7696c16.64-8.7552 36.4544-8.7552 53.0944 0l104.6016 54.9888c7.1168-11.1616 10.496-25.0368 7.8848-40.0384l-30.4128-177.3568c-3.1744-18.4832 2.9696-37.376 16.384-50.4832l128.9216-125.5936z" fill="#635DF7" p-id="4485"></path><path d="M612.864 507.4944c-1.8944 0-3.7888-0.1536-5.6832-0.4096l-46.7456-6.5024c-43.3664-5.7856-87.3984-38.4-104.7552-77.6704l-21.0432-45.4144c-9.5232-20.5312-0.5632-44.8512 19.968-54.3744s44.8512-0.5632 54.3744 19.968l21.1968 45.7728c0.1536 0.3072 0.256 0.5632 0.4096 0.8704 5.632 12.9536 25.9072 27.648 40.9088 29.6448l46.9504 6.5024c22.4256 3.1232 38.0416 23.808 34.9696 46.1824-2.9184 20.5824-20.4288 35.4304-40.5504 35.4304z" fill="#FFFFFF" p-id="4486"></path></svg>