<?xml version="1.0" standalone="no"?><!DOCTYPE svg PUBLIC "-//W3C//DTD SVG 1.1//EN" "http://www.w3.org/Graphics/SVG/1.1/DTD/svg11.dtd"><svg t="1703408892405" class="icon" viewBox="0 0 1024 1024" version="1.1" xmlns="http://www.w3.org/2000/svg" p-id="3830" xmlns:xlink="http://www.w3.org/1999/xlink" width="200" height="200"><path d="M658.0736 622.4896H141.9264c-44.288 0-80.2304-35.9424-80.2304-80.2304V204.7488c0-44.288 35.9424-80.2304 80.2304-80.2304h516.1984c44.288 0 80.2304 35.9424 80.2304 80.2304v337.5616c-0.0512 44.288-35.9424 80.1792-80.2816 80.1792z" fill="#A5ADF6" p-id="3831"></path><path d="M876.2368 259.2256H274.8928c-45.1072 0-81.664 36.5568-81.664 81.664v383.5392c0 45.1072 36.5568 81.664 81.664 81.664h153.088c6.4512 0 12.6976 2.0992 17.7664 6.0416l112.4352 85.9136a29.3376 29.3376 0 0 0 37.5808-1.6384l90.2656-82.5856c5.376-4.9664 12.4416-7.68 19.7632-7.68h170.4448c45.1072 0 81.664-36.5568 81.664-81.664V340.8896c0-45.056-36.5568-81.664-81.664-81.664z" fill="#A5ADF6" p-id="3832"></path><path d="M656.64 622.4896c45.1072 0 81.664-36.5568 81.664-81.664v-281.6H274.8928c-45.1072 0-81.664 36.5568-81.664 81.664v281.6h463.4112z" fill="#635DF7" p-id="3833"></path><path d="M738.304 488.192H416.9728c-24.4736 0-44.288-19.8144-44.288-44.288s19.8144-44.288 44.288-44.288h321.3312c24.4736 0 44.288 19.8144 44.288 44.288s-19.8144 44.288-44.288 44.288zM738.304 679.7824H416.9728c-24.4736 0-44.288-19.8144-44.288-44.288s19.8144-44.288 44.288-44.288h321.3312c24.4736 0 44.288 19.8144 44.288 44.288 0.0512 24.4736-19.8144 44.288-44.288 44.288z" fill="#F7F8F8" p-id="3834"></path></svg>