<?xml version="1.0" standalone="no"?><!DOCTYPE svg PUBLIC "-//W3C//DTD SVG 1.1//EN" "http://www.w3.org/Graphics/SVG/1.1/DTD/svg11.dtd"><svg t="1703408906425" class="icon" viewBox="0 0 1024 1024" version="1.1" xmlns="http://www.w3.org/2000/svg" p-id="3991" xmlns:xlink="http://www.w3.org/1999/xlink" width="200" height="200"><path d="M514.4064 85.1456L280.0128 246.1696H176.3328c-62.2592 0-112.6912 50.432-112.6912 112.6912v281.7024c0 62.2592 50.432 112.6912 112.6912 112.6912h98.304l234.9056 184.9344c61.3376 48.2816 151.296 4.608 151.296-73.4208V162.2016c-0.0512-75.264-84.4288-119.6544-146.432-77.056z" fill="#FFD05C" p-id="3992"></path><path d="M647.3728 513.4848m-316.7744 0a316.7744 316.7744 0 1 0 633.5488 0 316.7744 316.7744 0 1 0-633.5488 0Z" fill="#FFD05C" p-id="3993"></path><path d="M660.7872 829.9008V197.0688c-4.4544-0.2048-8.9088-0.3584-13.4144-0.3584-174.9504 0-316.7744 141.824-316.7744 316.7744s141.824 316.7744 316.7744 316.7744c4.5056 0 8.96-0.1536 13.4144-0.3584z" fill="#FCA235" p-id="3994"></path><path d="M235.8272 627.8656c-22.6304 0-40.96-18.3296-40.96-40.96V440.1152c0-22.6304 18.3296-40.96 40.96-40.96s40.96 18.3296 40.96 40.96v146.7904c0 22.5792-18.3296 40.96-40.96 40.96zM749.056 700.8256c-12.3392 0-24.5248-5.5296-32.5632-16.0768-13.7216-17.9712-10.2912-43.6736 7.6288-57.3952 5.0176-3.84 9.8304-8.0896 14.3872-12.5952 55.808-55.808 55.808-146.6368 0-202.4448-4.5056-4.5568-9.3696-8.8064-14.4384-12.6464-17.9712-13.7216-21.4016-39.4752-7.68-57.3952 13.7216-17.9712 39.4752-21.4016 57.3952-7.68 7.8848 6.0416 15.5136 12.6976 22.5792 19.7632 87.7568 87.7568 87.7568 230.5536 0 318.3104a228.7616 228.7616 0 0 1-22.528 19.7632 40.78592 40.78592 0 0 1-24.7808 8.3968z" fill="#FFFFFF" p-id="3995"></path></svg>