<?xml version="1.0" standalone="no"?><!DOCTYPE svg PUBLIC "-//W3C//DTD SVG 1.1//EN" "http://www.w3.org/Graphics/SVG/1.1/DTD/svg11.dtd"><svg t="1703395236317" class="icon" viewBox="0 0 1024 1024" version="1.1" xmlns="http://www.w3.org/2000/svg" p-id="4378" xmlns:xlink="http://www.w3.org/1999/xlink" width="200" height="200"><path d="M429.8 650.2h164.5c53.7 0 97.6-43.9 97.6-97.6V377.1H585.3v-40h106.6v-40H585.3v-40h106.6v-40H585.3v-40h106.6v-15.6c0-53.7-43.9-97.6-97.6-97.6H429.8c-53.7 0-97.6 43.9-97.6 97.6v15.6h106.6v40H332.1v40h106.6v40H332.1v40h106.6v40H332.1v175.5c0 53.7 44 97.6 97.7 97.6z" p-id="4379" data-spm-anchor-id="a313x.search_index.0.i0.47d13a81g3SJFJ" class="" fill="#8b0aed"></path><path d="M825.1 380.4c-18.4 0-33.3 14.9-33.3 33.3v186.5c0 69.8-57.5 126.6-128.3 126.6h-303c-70.7 0-128.3-56.8-128.3-126.6V413.7c0-18.4-14.9-33.3-33.3-33.3s-33.3 14.9-33.3 33.3v186.5c0 106.5 87.4 193.2 194.9 193.2H472V920c0 22 18 40 40 40s40-18 40-40V793.5h111.5c107.5 0 194.9-86.7 194.9-193.2V413.7c0-18.4-14.9-33.3-33.3-33.3z" p-id="4380" data-spm-anchor-id="a313x.search_index.0.i1.47d13a81g3SJFJ" class="" fill="#8b0aed"></path></svg>